<svg width="384" height="512" xmlns="http://www.w3.org/2000/svg" xmlns:xlink="http://www.w3.org/1999/xlink" overflow="hidden"><defs><clipPath id="clip0"><rect x="448" y="104" width="384" height="512"/></clipPath></defs><g clip-path="url(#clip0)" transform="translate(-448 -104)"><path d="M488.1 571.1 476.9 580.1C473.7 582.6 469.8 584 465.8 584 456 584 448 576 448 566.2L448 296C448 190 534 104 640 104 746 104 832 190 832 296L832 566.2C832 576 824 584 814.2 584 810.2 584 806.3 582.6 803.1 580.1L791.9 571.1C778.5 560.4 759.1 562.1 747.8 575L717.3 610C714 613.8 709.1 616 704 616 698.9 616 694.1 613.8 690.7 610L664.1 579.5C651.4 564.9 628.7 564.9 615.9 579.5L589.3 610C586 613.8 581.1 616 576 616 570.9 616 566.1 613.8 562.7 610L532.2 575C520.9 562.1 501.5 560.4 488.1 571.1ZM608 296C608 278.327 593.673 264 576 264 558.327 264 544 278.327 544 296 544 313.673 558.327 328 576 328 593.673 328 608 313.673 608 296ZM704 328C721.673 328 736 313.673 736 296 736 278.327 721.673 264 704 264 686.327 264 672 278.327 672 296 672 313.673 686.327 328 704 328Z" fill="#8370BD"/></g></svg>